<?xml version="1.0" standalone="no"?><!DOCTYPE svg PUBLIC "-//W3C//DTD SVG 1.1//EN" "http://www.w3.org/Graphics/SVG/1.1/DTD/svg11.dtd" [<!ENTITY nbsp " ">]><svg data-noselect="" viewBox="126.72476147238001 -19.098517100932582 866.8382385276202 650.1286788957151" width="866.8382385276202" ref="svg_canvas" height="650.1286788957151" preserveAspectRatio="none" version="1.1" xmlns="http://www.w3.org/2000/svg" style="background: #ffffff;"><g id="shape_WGq6Ye8mnL" ref="shape_WGq6Ye8mnL" key="shape_WGq6Ye8mnL" transform="translate(206.72476147238,207.35594177246) rotate(0,95.775238527625,98.609880574464) scale(1,1)" style="cursor:move;display:inline;opacity:1;" filter="">
            <g style="display:inline"><rect fill="rgba(0,0,0,0)" width="211.55047705524953" height="217.21976114892814" x="-10" y="-10"></rect><svg version="1.1" id="图层_1" xmlns="http://www.w3.org/2000/svg" xmlns:xlink="http://www.w3.org/1999/xlink" x="0px" y="0px" width="191.55047705524953" height="197.21976114892814" viewBox="15.099761962890625 21.3245849609375 152.90023803710938 157.42559814453125" style="enable-background:new 0 0 200 200;" xml:space="preserve" preserveAspectRatio="none" data-parent="shape_WGq6Ye8mnL">
<style type="text/css">
	.st0{fill:#1730C6;}
	.st1{fill:#033CDD;}
	.st2{fill:#15BCC8;}
</style>
<path class="" d="M103.5,178.6c-20.7,1.4-46.1-7-63.1-24.7C18,130.7,10.1,104.6,18.2,73.2c1.5-5.9,4.9-9.1,11-8.4
	c9.6,1.1,14,6.8,12.1,15.7c-7,33.4,13.4,69.6,45.7,81.3c27.3,9.8,52.1,5.4,74.6-12.9c1.1-0.9,5.3-4.1,6.4-5
	C162.9,155.3,137.1,176.4,103.5,178.6z" fill="#1730C6"></path>
<path class="" d="M45,94.7C41.6,65,50.4,41.4,74.4,24.2c4.2-3.4,10.4-4.6,14.1,1c3.7,5.6,3.1,10.9-2.2,15
	C70.5,52.4,62.9,68.8,61.7,89c-1.6,27.5,17.6,55.4,43.4,62.3c6.2,1.7,13,2.3,20.7,3.3c-6.3,1.1-13.3,1.7-19.2,1.1
	c-19-2.1-35.7-10.3-46.9-26.5C53.7,120.5,46.7,109.9,45,94.7z" fill="#033CDD"></path>
<path class="" d="M82.3,127.2c-13.7-17.6-16.1-38-8.5-59.4c11.4-32,46.6-47.7,76.5-34.5c7.3,3.2,8.9,5.8,6.9,11.3
	c-2.4,6.6-5.8,8-13.1,5.4c-22.6-8-45-1-58.5,19.1c-10.3,15.4-12,32.3-5.2,49.9c0.6,1.5,1.1,2.9,1.7,4.3c0.5,1.1,3.5,7.1,3.5,7.1
	S84,129.3,82.3,127.2z" fill="#15BCC8"></path>
</svg></g>
        </g><g id="shape_YB19zCWwaG" ref="shape_YB19zCWwaG" key="shape_YB19zCWwaG" transform="translate(408,349.98583984375) rotate(0,104.63989257812,16.326904296875) scale(1,1)" style="cursor:move;display:inline;opacity:1;" filter="">
            <g style="display:inline"><svg xmlns="http://www.w3.org/2000/svg" version="1.1" xmlns:xlink="http://www.w3.org/1999/xlink" overflow="hidden" style="top:0; left: 0" width="212.6318359375" height="32.65380859375" viewBox="0 0 207.6318359375 32.65380859375" preserveAspectRatio="none" data-parent="shape_YB19zCWwaG"><rect fill="rgba(0,0,0,0)" width="212.6318359375" height="32.65380859375"></rect> <rect opacity="0"></rect><g transform="translate(0 0)" data-width="202.6318359375"><path fill="#1730c6" d="M6.02-2.88L6.02-17.82L0.73-17.82L0.73-20.31L13.81-20.31L13.81-17.82L8.51-17.82L8.51-2.88L6.02-2.88Z" transform="translate(5 20.947265625)"></path><path fill="#1730c6" d="M8.07-2.56Q10.91-2.56 12.92-4.21L12.92-4.21Q14.92-5.85 14.92-8.17L14.92-8.17L14.92-20.31L12.43-20.31L12.43-8.17Q12.43-6.88 11.16-5.97L11.16-5.97Q9.88-5.05 8.07-5.05L8.07-5.05Q6.26-5.05 4.99-5.97L4.99-5.97Q3.71-6.88 3.71-8.17L3.71-8.17L3.71-20.31L1.22-20.31L1.22-8.17Q1.22-5.85 3.22-4.21L3.22-4.21Q5.24-2.56 8.07-2.56L8.07-2.56Z" transform="translate(19.53857421875 20.947265625)"></path><path fill="#1730c6" d="M8.34-9.73L3.71-9.73L3.71-2.88L1.22-2.88L1.22-20.31L9.63-20.31Q11.82-20.31 13.37-18.76L13.37-18.76Q14.92-17.21 14.92-15.01L14.92-15.01Q14.92-12.83 13.37-11.28L13.37-11.28Q12.41-10.33 11.22-9.96L11.22-9.96L16.16-2.88L13.13-2.88L8.34-9.73ZM9.63-17.82L3.71-17.82L3.71-12.22L9.63-12.22Q10.79-12.22 11.61-13.04L11.61-13.04Q12.43-13.85 12.43-15.01L12.43-15.01Q12.43-16.17 11.61-17.00L11.61-17.00Q10.79-17.82 9.63-17.82L9.63-17.82Z" transform="translate(35.67626953125 20.947265625)"></path><path fill="#1730c6" d="M1.22-2.88L9.47-2.88Q11.60-2.88 13.11-4.38L13.11-4.38Q14.61-5.88 14.61-8.02L14.61-8.02Q14.61-10.14 13.11-11.65L13.11-11.65Q12.78-11.98 12.41-12.23L12.41-12.23Q13.67-13.60 13.67-15.49L13.67-15.49Q13.67-17.48 12.27-18.90L12.27-18.90Q10.85-20.31 8.85-20.31L8.85-20.31L1.22-20.31L1.22-2.88ZM3.71-10.66L9.47-10.66Q10.57-10.66 11.34-9.89L11.34-9.89Q12.12-9.11 12.12-8.02L12.12-8.02Q12.12-6.92 11.34-6.14L11.34-6.14Q10.57-5.37 9.47-5.37L9.47-5.37L3.71-5.37L3.71-10.66ZM3.71-17.82L8.85-17.82Q9.81-17.82 10.50-17.14L10.50-17.14Q11.18-16.46 11.18-15.49L11.18-15.49Q11.18-14.51 10.50-13.83L10.50-13.83Q9.81-13.15 8.85-13.15L8.85-13.15L3.71-13.15L3.71-17.82Z" transform="translate(51.32568359375 20.947265625)"></path><path fill="#1730c6" d="M13.18-7.54L0.73-7.54L0.73-10.03L13.18-10.03L13.18-7.54Z" transform="translate(66.669921875 20.947265625)"></path><path fill="#1730c6" d="M9.17-8.17L3.71-15.95L3.71-2.88L1.22-2.88L1.22-20.31L3.71-20.31L10.24-10.97L16.78-20.31L19.27-20.31L19.27-2.88L16.78-2.88L16.78-15.98L11.32-8.17L9.17-8.17Z" transform="translate(80.5859375 20.947265625)"></path><path fill="#1730c6" d="M13.00-7.54L4.93-7.54L2.95-2.88L0.24-2.88L7.64-20.31L10.28-20.31L17.68-2.88L14.98-2.88L13.00-7.54ZM5.99-10.03L11.94-10.03L8.96-17.04L5.99-10.03Z" transform="translate(101.08154296875 20.947265625)"></path><path fill="#1730c6" d="M3.69-20.31L1.22-20.31L1.22-2.88L3.71-2.88L3.71-15.83L12.45-2.88L14.92-2.88L14.92-20.31L12.43-20.31L12.43-7.36L3.69-20.31Z" transform="translate(119.00146484375 20.947265625)"></path><path fill="#1730c6" d="M13.00-7.54L4.93-7.54L2.95-2.88L0.24-2.88L7.64-20.31L10.28-20.31L17.68-2.88L14.98-2.88L13.00-7.54ZM5.99-10.03L11.94-10.03L8.96-17.04L5.99-10.03Z" transform="translate(135.13916015625 20.947265625)"></path><path fill="#1730c6" d="M18.70-12.84L9.13-12.84L9.13-10.35L16.19-10.35Q15.84-8.44 14.38-6.97L14.38-6.97Q12.46-5.05 9.75-5.05L9.75-5.05Q7.04-5.05 5.14-6.97L5.14-6.97Q3.22-8.89 3.22-11.60L3.22-11.60Q3.22-14.31 5.14-16.22L5.14-16.22Q7.04-18.13 9.75-18.13L9.75-18.13Q12.81-18.13 14.77-15.80L14.77-15.80L16.67-17.40Q13.96-20.63 9.75-20.63L9.75-20.63Q6.02-20.63 3.37-17.98L3.37-17.98Q0.73-15.33 0.73-11.60L0.73-11.60Q0.73-7.85 3.37-5.21L3.37-5.21Q6.02-2.56 9.75-2.56L9.75-2.56Q13.50-2.56 16.14-5.21L16.14-5.21Q18.79-7.85 18.79-11.60L18.79-11.60Q18.79-12.22 18.70-12.84L18.70-12.84Z" transform="translate(153.05908203125 20.947265625)"></path><path fill="#1730c6" d="M1.22-20.31L13.67-20.31L13.67-17.82L3.71-17.82L3.71-12.84L13.67-12.84L13.67-10.35L3.71-10.35L3.71-5.37L13.67-5.37L13.67-2.88L1.22-2.88L1.22-20.31Z" transform="translate(172.578125 20.947265625)"></path><path fill="#1730c6" d="M8.34-9.73L3.71-9.73L3.71-2.88L1.22-2.88L1.22-20.31L9.63-20.31Q11.82-20.31 13.37-18.76L13.37-18.76Q14.92-17.21 14.92-15.01L14.92-15.01Q14.92-12.83 13.37-11.28L13.37-11.28Q12.41-10.33 11.22-9.96L11.22-9.96L16.16-2.88L13.13-2.88L8.34-9.73ZM9.63-17.82L3.71-17.82L3.71-12.22L9.63-12.22Q10.79-12.22 11.61-13.04L11.61-13.04Q12.43-13.85 12.43-15.01L12.43-15.01Q12.43-16.17 11.61-17.00L11.61-17.00Q10.79-17.82 9.63-17.82L9.63-17.82Z" transform="translate(186.982421875 20.947265625)"></path></g></svg></g>
        </g><g id="shape_bgWDEJoTig" ref="shape_bgWDEJoTig" key="shape_bgWDEJoTig" transform="translate(305.5,261.94578933716) rotate(0,150.34402585538,44.02) scale(1,1)" style="cursor:move;display:inline;opacity:1;" filter="">
            <g style="display:inline"><svg xmlns="http://www.w3.org/2000/svg" version="1.1" xmlns:xlink="http://www.w3.org/1999/xlink" overflow="hidden" style="top:0; left: 0" width="608.0630000000002" height="88.04" viewBox="0 0 603.0630000000002 88.04" preserveAspectRatio="none" data-parent="shape_bgWDEJoTig"><rect fill="rgba(0,0,0,0)" width="608.0630000000002" height="88.04"></rect> <rect opacity="0"></rect><g transform="translate(0 0)" data-width="598.0630000000002"><path fill="#1730c6" d="M15.12 10.79L15.12-49.56L3.27-49.56L3.27-54.17L44.30-54.17L44.30-49.56L32.45-49.56L32.45 10.79L15.12 10.79Z" transform="translate(5 61.06000000000001)"></path><path fill="#1730c6" d="M44.45 10.79L3.27 10.79L3.27-54.17L18.60-54.17L18.60 6.25L29.11 6.25L29.11-54.17L44.45-54.17L44.45 10.79Z" transform="translate(52.57000000000001 61.06000000000001)"></path><path fill="#1730c6" d="M18.11 10.79L3.27 10.79L3.27-54.17L40.12-54.17Q41.96-54.17 43.24-52.86Q44.52-51.55 44.52-49.70L44.52-49.70L44.52-27.34L40.83-21.66L44.59-15.98L44.59 10.79L29.75 10.79L29.75-19.53L18.11-19.53L18.11 10.79ZM18.11-49.49L18.11-24.28L29.68-24.28L29.68-48.00Q29.68-49.49 28.19-49.49L28.19-49.49L18.11-49.49Z" transform="translate(100.28200000000001 61.06000000000001)"></path><path fill="#1730c6" d="M44.09-49.63L44.09-28.40L39.26-21.58L44.09-14.84L44.09 10.79L3.27 10.79L3.27-54.10L39.69-54.10Q41.54-54.10 42.81-52.79Q44.09-51.48 44.09-49.63L44.09-49.63ZM27.34-49.49L18.53-49.49L18.53-23.79L28.83-23.79L28.83-48.00Q28.83-49.49 27.34-49.49L27.34-49.49ZM28.83 6.25L28.83-19.10L18.53-19.10L18.53 6.25L28.83 6.25Z" transform="translate(148.13600000000002 61.06000000000001)"></path><path fill="#1730c6" d="M3.62-18.74L3.62-24.00L29.89-24.00L29.89-18.74L3.62-18.74Z" transform="translate(195.49300000000002 61.06000000000001)"></path><path fill="#1730c6" d="M18.39-29.32L18.39 10.79L3.27 10.79L3.27-54.10L23.08-54.10L33.51-29.25L43.74-54.10L63.55-54.10L63.55 10.79L48.35 10.79L48.35-29.32L39.97-12.35L26.98-12.35L18.39-29.32Z" transform="translate(229.00500000000002 61.06000000000001)"></path><path fill="#1730c6" d="M34.86 10.79L30.96-12.00L22.44-12.00L18.46 10.79L3.27 10.79L17.04-54.17L36.28-54.17L50.06 10.79L34.86 10.79ZM23.22-16.61L30.10-16.61L26.70-36.57L23.22-16.61Z" transform="translate(295.81600000000003 61.06000000000001)"></path><path fill="#1730c6" d="M17.96-28.40L17.96 10.79L3.27 10.79L3.27-54.10L21.37-54.10L35.36-13.28L35.36-54.10L49.42-54.10L49.42 10.79L31.45 10.79L17.96-28.40Z" transform="translate(349.13700000000006 61.06000000000001)"></path><path fill="#1730c6" d="M34.86 10.79L30.96-12.00L22.44-12.00L18.46 10.79L3.27 10.79L17.04-54.17L36.28-54.17L50.06 10.79L34.86 10.79ZM23.22-16.61L30.10-16.61L26.70-36.57L23.22-16.61Z" transform="translate(401.8190000000001 61.06000000000001)"></path><path fill="#1730c6" d="M44.38-22.86L44.38 10.79L3.27 10.79L3.27-54.10L44.16-54.10L44.16-49.42L18.82-49.42L18.82 6.25L28.83 6.25L28.83-21.16Q28.83-22.65 27.34-22.65L27.34-22.65L24.00-22.65L24.00-27.34L39.97-27.34Q41.82-27.34 43.10-26.02Q44.38-24.71 44.38-22.86L44.38-22.86Z" transform="translate(455.1400000000001 61.06000000000001)"></path><path fill="#1730c6" d="M7.74-54.10L44.16-54.10L44.16-49.42L21.02-49.42Q19.53-49.42 19.53-47.93L19.53-47.93L19.53-25.99L43.74-25.99L43.74-21.30L19.53-21.30L19.53 6.18L44.16 6.18L44.16 10.79L3.27 10.79L3.27-49.63Q3.27-51.48 4.58-52.79Q5.89-54.10 7.74-54.10L7.74-54.10Z" transform="translate(502.7810000000001 61.06000000000001)"></path><path fill="#1730c6" d="M18.11 10.79L3.27 10.79L3.27-54.17L40.12-54.17Q41.96-54.17 43.24-52.86Q44.52-51.55 44.52-49.70L44.52-49.70L44.52-27.34L40.83-21.66L44.59-15.98L44.59 10.79L29.75 10.79L29.75-19.53L18.11-19.53L18.11 10.79ZM18.11-49.49L18.11-24.28L29.68-24.28L29.68-48.00Q29.68-49.49 28.19-49.49L28.19-49.49L18.11-49.49Z" transform="translate(550.2090000000002 61.06000000000001)"></path></g></svg></g>
        </g></svg>