<?xml version="1.0" standalone="no"?><!DOCTYPE svg PUBLIC "-//W3C//DTD SVG 1.1//EN" "http://www.w3.org/Graphics/SVG/1.1/DTD/svg11.dtd" [<!ENTITY nbsp " ">]><svg data-noselect="" viewBox="186.61924743652003 -4.451538564599986 807 605.25" width="807" ref="svg_canvas" height="605.25" preserveAspectRatio="none" version="1.1" xmlns="http://www.w3.org/2000/svg" style="background: #1b235d;"><g id="shape_IYw52gsx3Y" ref="shape_IYw52gsx3Y" key="shape_IYw52gsx3Y" transform="translate(283.11926269531,353.21717857991) rotate(0,105.5,32.68234574774) scale(1,1)" style="cursor:move;display:inline;opacity:1;" filter="">
            <g style="display:inline"><rect fill="rgba(0,0,0,0)" width="231" height="85.36469149548" x="-10" y="-10"></rect><svg version="1.1" id="图层_1" xmlns="http://www.w3.org/2000/svg" xmlns:xlink="http://www.w3.org/1999/xlink" x="0px" y="0px" width="211" height="65.36469149548" viewBox="6.159996032714844 71.7229995727539 189.86700439453125 58.81800079345703" enable-background="new 0 0 200 200" xml:space="preserve" preserveAspectRatio="none" data-parent="shape_IYw52gsx3Y">
<path fill="#ff8308" d="M196.027,71.723c-17.545,34.889-53.673,58.818-95.376,58.818c-41.02,0-76.642-23.146-94.491-57.099h35.382
	c16.269,25.118,44.547,41.728,76.693,41.728C151.114,115.17,179.948,97.802,196.027,71.723z"></path>
</svg></g>
        </g><g id="shape_wWoBMQBOXD" ref="shape_wWoBMQBOXD" key="shape_wWoBMQBOXD" transform="translate(278.11926269531,177.76505279541) rotate(0,108.5,48.617958780643) scale(1,1)" style="cursor:move;display:inline;opacity:1;" filter="">
            <g style="display:inline"><rect fill="rgba(0,0,0,0)" width="237" height="117.235917561286" x="-10" y="-10"></rect><svg version="1.1" id="图层_1" xmlns="http://www.w3.org/2000/svg" xmlns:xlink="http://www.w3.org/1999/xlink" x="0px" y="0px" width="217" height="97.235917561286" viewBox="3.444999933242798 56.73400115966797 193.1099853515625 86.53099822998047" enable-background="new 0 0 200 200" xml:space="preserve" preserveAspectRatio="none" data-parent="shape_wWoBMQBOXD">
<path fill="#ff8308" d="M35.373,143.265H3.445c7.72-49.035,50.177-86.531,101.376-86.531c40.11,0,74.859,23.016,91.734,56.572
	c-15.465-25.082-43.198-41.788-74.822-41.788C78.729,71.519,42.923,102.438,35.373,143.265z"></path>
</svg></g>
        </g><g id="shape_BmrB49sJvQ" ref="shape_BmrB49sJvQ" key="shape_BmrB49sJvQ" transform="translate(266.61924743652,276.0009765625) rotate(0,202.68,47.85425) scale(1,1)" style="cursor:move;display:inline;opacity:1;" filter="">
            <g style="display:inline"><svg xmlns="http://www.w3.org/2000/svg" version="1.1" xmlns:xlink="http://www.w3.org/1999/xlink" overflow="hidden" style="top:0; left: 0" width="647" height="95.7085" viewBox="0 0 642 95.7085" preserveAspectRatio="none" data-parent="shape_BmrB49sJvQ"><rect fill="rgba(0,0,0,0)" width="647" height="95.7085"></rect> <rect opacity="0"></rect><g transform="translate(0 0)" data-width="637"><path fill="#FFFFFF" d="M17.06 0L17.06-43.29L0.32-43.29L0.32-52.69L45.74-52.69L45.74-43.29L28.28-43.29L28.28 0L17.06 0Z" transform="translate(5 67.861)"></path><path fill="#FFFFFF" d="M4.74-52.69L15.88-52.69L15.88-21.09Q15.88-17.30 16.51-15.21Q17.14-13.11 18.64-11.61L18.64-11.61Q21.96-8.37 27.89-8.37L27.89-8.37Q31.68-8.37 34.48-9.68Q37.29-10.98 38.39-13.19L38.39-13.19Q39.50-15.40 39.50-21.09L39.50-21.09L39.50-52.69L50.72-52.69L50.72-21.65Q50.72-15.48 49.41-11.49Q48.11-7.50 45.42-5.06L45.42-5.06Q39.18 0.40 27.73 0.40L27.73 0.40Q15.48 0.40 9.88-4.98L9.88-4.98Q6.95-7.74 5.85-11.18Q4.74-14.62 4.74-20.86L4.74-20.86L4.74-52.69Z" transform="translate(51.136 67.861)"></path><path fill="#FFFFFF" d="M25.60-19.99L16.59-19.99L16.59 0L5.37 0L5.37-52.69L31.13-52.69Q42.19-52.69 46.53-49.85L46.53-49.85Q49.53-47.95 51.15-44.83Q52.77-41.71 52.77-38.00L52.77-38.00Q52.77-30.49 48.98-26.39L48.98-26.39Q46.61-23.94 42.74-22.67L42.74-22.67Q45.82-21.57 47.40-20.34Q48.98-19.12 50.24-16.75L50.24-16.75Q51.19-14.85 51.63-13.11Q52.06-11.38 52.30-7.98L52.30-7.98Q52.77-2.29 53.56 0L53.56 0L41.00 0Q40.45-1.82 39.82-7.50L39.82-7.50Q39.42-12.09 38.20-14.54Q36.97-16.98 34.52-18.41L34.52-18.41Q31.44-20.07 25.60-19.99L25.60-19.99ZM16.59-43.29L16.59-29.39L32.31-29.39Q36.26-29.39 37.92-30.57L37.92-30.57Q40.45-32.31 40.45-36.66L40.45-36.66Q40.45-41.48 36.66-42.82L36.66-42.82Q35.31-43.29 32.31-43.29L32.31-43.29L16.59-43.29Z" transform="translate(106.673 67.861)"></path><path fill="#FFFFFF" d="M34.52 0L5.37 0L5.37-52.69L35.16-52.69Q42.19-52.69 45.35-51.03L45.35-51.03Q49.06-49.22 50.95-44.95L50.95-44.95Q52.30-42.03 52.30-38.87L52.30-38.87Q52.30-34.76 50.13-31.21Q47.95-27.65 44.63-26.31L44.63-26.31Q52.30-22.83 52.30-13.90L52.30-13.90Q52.30-8.77 49.85-5.29L49.85-5.29Q47.72-2.29 44.40-1.15Q41.08 0 34.52 0L34.52 0ZM16.59-43.29L16.59-31.05L31.84-31.05Q34.29-31.05 35.35-31.28Q36.42-31.52 37.45-32.31L37.45-32.31Q39.90-34.21 39.90-37.52L39.90-37.52Q39.90-40.69 37.60-42.19L37.60-42.19Q35.95-43.29 32.07-43.29L32.07-43.29L16.59-43.29ZM16.59-21.65L16.59-9.40L31.84-9.40Q34.29-9.40 35.39-9.64Q36.50-9.88 37.45-10.67L37.45-10.67Q39.90-12.56 39.90-15.88L39.90-15.88Q39.90-19.04 37.60-20.54L37.60-20.54Q35.95-21.65 32.07-21.65L32.07-21.65L16.59-21.65Z" transform="translate(163.079 67.861)"></path><path fill="#FFFFFF" d="M0-25.12L18.41-25.12L18.41-15.64L0-15.64L0-25.12Z" transform="translate(218.221 67.861)"></path><path fill="#FFFFFF" d="M5.13-52.69L21.49-52.69L34.60-11.53L48.43-52.69L64.78-52.69L64.78 0L54.12 0L54.12-39.50L40.37 0L28.84 0L15.80-39.50L15.80 0L5.13 0L5.13-52.69Z" transform="translate(236.62800000000001 67.861)"></path><path fill="#FFFFFF" d="M13.35 0L0.24 0L22.04-52.69L34.92-52.69L56.72 0L43.61 0L38.47-12.17L18.49-12.17L13.35 0ZM36.02-21.57L28.52-39.97L21.01-21.57L36.02-21.57Z" transform="translate(306.85900000000004 67.861)"></path><path fill="#FFFFFF" d="M37.60 0L16.12-38.63L16.12 0L5.37 0L5.37-52.69L19.75-52.69L40.69-13.43L40.69-52.69L51.35-52.69L51.35 0L37.60 0Z" transform="translate(363.89700000000005 67.861)"></path><path fill="#FFFFFF" d="M13.35 0L0.24 0L22.04-52.69L34.92-52.69L56.72 0L43.61 0L38.47-12.17L18.49-12.17L13.35 0ZM36.02-21.57L28.52-39.97L21.01-21.57L36.02-21.57Z" transform="translate(420.619 67.861)"></path><path fill="#FFFFFF" d="M24.73-21.88L24.73-31.28L50.56-31.28L50.56 0L27.02 0Q20.93 0 17.34-0.91Q13.75-1.82 10.82-4.11L10.82-4.11Q2.53-10.51 2.53-26.15L2.53-26.15Q2.53-36.34 6.48-43.13L6.48-43.13Q9.40-48.11 14.46-50.40Q19.51-52.69 27.57-52.69L27.57-52.69L50.56-52.69L50.56-43.29L28.84-43.29Q21.80-43.29 18.64-40.21L18.64-40.21Q14.85-36.58 14.85-27.18L14.85-27.18Q14.85-22.36 15.84-18.49Q16.83-14.62 18.57-12.72L18.57-12.72Q20.07-10.98 22.71-10.19Q25.36-9.40 29.23-9.40L29.23-9.40L39.42-9.40L39.42-21.88L24.73-21.88Z" transform="translate(477.65700000000004 67.861)"></path><path fill="#FFFFFF" d="M25.99-52.69L44.87-52.69L44.87-43.29L30.26-43.29Q24.57-43.29 21.96-42.50Q19.36-41.71 17.62-39.42L17.62-39.42Q16.43-37.84 16.00-36.26Q15.56-34.68 15.25-30.89L15.25-30.89L44.87-30.89L44.87-21.49L15.25-21.49Q15.88-14.69 19.28-12.05Q22.67-9.40 30.81-9.40L30.81-9.40L44.87-9.40L44.87 0L30.26 0Q24.33 0 19.83-0.71L19.83-0.71Q12.72-1.90 8.53-6.95L8.53-6.95Q2.53-14.22 2.53-26.62L2.53-26.62Q2.53-40.37 10.98-48.03L10.98-48.03Q13.90-50.64 17.18-51.67Q20.46-52.69 25.99-52.69L25.99-52.69Z" transform="translate(532.2460000000001 67.861)"></path><path fill="#FFFFFF" d="M25.60-19.99L16.59-19.99L16.59 0L5.37 0L5.37-52.69L31.13-52.69Q42.19-52.69 46.53-49.85L46.53-49.85Q49.53-47.95 51.15-44.83Q52.77-41.71 52.77-38.00L52.77-38.00Q52.77-30.49 48.98-26.39L48.98-26.39Q46.61-23.94 42.74-22.67L42.74-22.67Q45.82-21.57 47.40-20.34Q48.98-19.12 50.24-16.75L50.24-16.75Q51.19-14.85 51.63-13.11Q52.06-11.38 52.30-7.98L52.30-7.98Q52.77-2.29 53.56 0L53.56 0L41.00 0Q40.45-1.82 39.82-7.50L39.82-7.50Q39.42-12.09 38.20-14.54Q36.97-16.98 34.52-18.41L34.52-18.41Q31.44-20.07 25.60-19.99L25.60-19.99ZM16.59-43.29L16.59-29.39L32.31-29.39Q36.26-29.39 37.92-30.57L37.92-30.57Q40.45-32.31 40.45-36.66L40.45-36.66Q40.45-41.48 36.66-42.82L36.66-42.82Q35.31-43.29 32.31-43.29L32.31-43.29L16.59-43.29Z" transform="translate(580.594 67.861)"></path></g></svg></g>
        </g><g id="shape_49LRgH5AvW" ref="shape_49LRgH5AvW" key="shape_49LRgH5AvW" transform="translate(327.99893188477,246.3671875) rotate(0,181.45263671875,24.81689453125) scale(1,1)" style="cursor:move;display:inline;opacity:1;" filter="">
            <g style="display:inline"><svg xmlns="http://www.w3.org/2000/svg" version="1.1" xmlns:xlink="http://www.w3.org/1999/xlink" overflow="hidden" style="top:0; left: 0" width="167" height="49.6337890625" viewBox="0 0 162 44.6796875" preserveAspectRatio="none" data-parent="shape_49LRgH5AvW"><rect fill="rgba(0,0,0,0)" width="167" height="49.6337890625"></rect> <rect opacity="0"></rect><g transform="translate(0 0)" data-width="157"><path fill="#FFFFFF" d="M5.94-30.73L10.39-29.50Q10.21-29.06 9.87-28.31L9.87-28.31L19-28.31L19-25.68L12.36-25.68Q14.32-24.68 15.70-23.38L15.70-23.38L12.13-21.04L16.85-21.04Q16.18-21.86 15.59-22.45L15.59-22.45L17.92-23.90Q20.52-23.08 22.38-21.67L22.38-21.67L21.19-21.04L28.57-21.04Q27.39-22.90 26.01-24.71L26.01-24.71L27.31-25.68L24.57-25.68Q23.08-23.86 21.19-22.71L21.19-22.71L19.22-24.23Q21.12-26.98 22.30-30.73L22.30-30.73L26.76-29.50Q26.61-29.06 26.24-28.31L26.24-28.31L36.40-28.31L36.40-25.68L29.13-25.68Q31.13-24.68 32.51-23.38L32.51-23.38L28.95-21.04L35.74-21.04L35.74-16.25L31.21-16.25L31.21-18.37L6.83-18.37L6.83-16.25L2.30-16.25L2.30-20.93L1.04-22.12Q4.01-25.64 5.94-30.73L5.94-30.73ZM9.65-7.98L32.66-7.98L32.66-15.66L5.12-15.66L5.12 1.93L33.58 1.93L33.58-5.94L9.65-5.94L9.65-7.98ZM29.06-0.74L9.65-0.74L9.65-3.30L29.06-3.30L29.06-0.74ZM9.65-10.65L9.65-13.03L28.13-13.03L28.13-10.65L9.65-10.65ZM3.71-21.04L11.80-21.04Q10.61-22.90 9.20-24.71L9.20-24.71L10.50-25.68L8.28-25.68Q6.31-22.82 3.71-21.04L3.71-21.04Z" transform="translate(5 32.65625)"></path><path fill="#FFFFFF" d="M13.36-25.57L13.36-28.20L1.60-28.20L1.60-25.57L5.20-25.57L5.20-16.81L2.08-16.81L2.08-14.18L5.20-14.18L5.20-4.01Q3.04-3.34 1.04-2.75L1.04-2.75L2.45 1.41Q8.42-0.45 13.92-4.23L13.92-4.23L12.95-6.49Q11.69-6.09 9.76-5.42L9.76-5.42L9.76-14.18L12.88-14.18L12.88-16.81L9.76-16.81L9.76-25.57L13.36-25.57ZM35.07-28.83L14.58-28.83L14.58-11.32L22.56-11.32L22.56-7.68L14.14-7.68L14.14-5.05L22.56-5.05L22.56-0.96L13.25-0.96L13.25 1.71L36.40 1.71L36.40-0.96L27.09-0.96L27.09-5.05L35.51-5.05L35.51-7.68L27.09-7.68L27.09-11.32L35.07-11.32L35.07-28.83ZM30.54-13.99L27.09-13.99L27.09-18.74L30.54-18.74L30.54-13.99ZM30.54-21.41L27.09-21.41L27.09-26.16L30.54-26.16L30.54-21.41ZM19.15-26.16L22.56-26.16L22.56-21.41L19.15-21.41L19.15-26.16ZM19.15-18.74L22.56-18.74L22.56-13.99L19.15-13.99L19.15-18.74Z" transform="translate(43 32.65625)"></path><path fill="#FFFFFF" d="M35.07-26.16L35.07-28.83L2.93-28.83L2.93-26.16L16.74-26.16L16.74-10.91L1.63-10.91L1.63-8.24L16.74-8.24L16.74 2.93L21.26 2.93L21.26-8.24L36.40-8.24L36.40-10.91L21.26-10.91L21.26-26.16L35.07-26.16ZM30.50-24.49L34.55-22.30Q31.36-17.14 25.49-12.80L25.49-12.80L23.64-14.47Q27.09-18.41 30.50-24.49L30.50-24.49ZM5.64-24.49Q5.83-24.49 8.76-21.56L8.76-21.56Q12.32-18.04 14.36-15.10L14.36-15.10L10.50-12.65Q7.38-17.96 3.49-23.16L3.49-23.16L5.64-24.49Z" transform="translate(81 32.65625)"></path><path fill="#FFFFFF" d="M33.18-12.54L4.82-12.54L4.82 1.71L33.18 1.71L33.18-12.54ZM9.39-0.93L9.39-9.91L28.65-9.91L28.65-0.93L9.39-0.93ZM2.93-19.11Q2.45-19.07 1.93-19.07L1.93-19.07L3.19-14.84Q17.78-15.55 30.06-17.70L30.06-17.70Q31.80-15.70 33.51-13.69L33.51-13.69L36.96-16.74Q32.32-21.89 25.90-26.01L25.90-26.01L24.01-24.42Q25.94-22.34 27.79-20.26L27.79-20.26Q18.37-19.63 8.39-19.26L8.39-19.26Q15.18-23.49 19.41-28.76L19.41-28.76L15.14-30.73Q9.54-24.05 2.93-19.11L2.93-19.11Z" transform="translate(119 32.65625)"></path></g></svg></g>
        </g></svg>