<?xml version="1.0" standalone="no"?><!DOCTYPE svg PUBLIC "-//W3C//DTD SVG 1.1//EN" "http://www.w3.org/Graphics/SVG/1.1/DTD/svg11.dtd" [<!ENTITY nbsp " ">]><svg data-noselect="" viewBox="-75.78281005859048 -66.54624251370782 965.305094505501 723.9788208791257" width="965.305094505501" ref="svg_canvas" height="723.9788208791257" preserveAspectRatio="none" version="1.1" xmlns="http://www.w3.org/2000/svg" style="background: #ffffff;"><g id="shape_hP89aRbDf6" ref="shape_hP89aRbDf6" key="shape_hP89aRbDf6" transform="translate(276.9239654541,161.5885354896) rotate(0,133.85463243625,133.85463243625) scale(1,1)" style="cursor:move;display:inline;opacity:1;" filter="">
            <g style="display:inline"><rect fill="rgba(0,0,0,0)" width="287.70926487251" height="287.70926487251" x="-10" y="-10"></rect><svg version="1.1" id="图层_1" xmlns="http://www.w3.org/2000/svg" xmlns:xlink="http://www.w3.org/1999/xlink" x="0px" y="0px" width="267.70926487251" height="267.70926487251" viewBox="0 0 100 100" enable-background="new 0 0 100 100" xml:space="preserve" shapetype="ellipse" preserveAspectRatio="none" data-parent="shape_hP89aRbDf6">
	 <linearGradient class="" x1="0%" y1="0%" x2="0%" y2="100%" gradientTransform="translate(0.5,0.5) rotate(0) translate(-0.5,-0.5)">
		<stop id="stop1_MdOuVuBBrh_c_c" offset="0%" class="" stop-color="#05a"></stop>
		<stop id="stop2_zBOADuhTjX_c_c" offset="100%" class="" stop-color="#0a5"></stop>
	</linearGradient>

	<radialGradient class="" cx="50%" cy="50%" r="50%" fx="50%" fy="50%">
		<stop offset="0%" class="" stop-color="#05a"></stop>
		<stop offset="100%" class="" stop-color="#0a5"></stop>
	</radialGradient>
	<clipPath id="f_ellipse_BOpF5UVmHE_c_c" class="">
		<ellipse fill="none" class="" stroke="#f9cb5e" stroke-width="1" stroke-miterlimit="10" cx="50" cy="50" rx="50" ry="50"></ellipse>
	</clipPath>
	<ellipse class="" fill="#000000" opacity="1" cx="50" cy="50" rx="49" ry="49"></ellipse>
	<ellipse class="" fill="none" stroke="#f9cb5e" stroke-width="0" stroke-miterlimit="10" cx="50" cy="50" rx="50" ry="50" clip-path="url(#f_ellipse_BOpF5UVmHE_c_c)"></ellipse>
</svg></g>
        </g><g id="shape_p5hoUMxeh5" ref="shape_p5hoUMxeh5" key="shape_p5hoUMxeh5" transform="translate(463.26682662964,172.72472763062) rotate(0,28.354632436253,28.354632436253) scale(1,1)" style="cursor:move;display:inline;opacity:1;" filter="">
            <g style="display:inline"><rect fill="rgba(0,0,0,0)" width="76.709264872505" height="76.709264872505" x="-10" y="-10"></rect><svg version="1.1" id="图层_1" xmlns="http://www.w3.org/2000/svg" xmlns:xlink="http://www.w3.org/1999/xlink" x="0px" y="0px" width="56.709264872505" height="56.709264872505" viewBox="0 0 100 100" enable-background="new 0 0 100 100" xml:space="preserve" shapetype="ellipse" preserveAspectRatio="none" data-parent="shape_p5hoUMxeh5">
	 <linearGradient class="" x1="0%" y1="0%" x2="0%" y2="100%" gradientTransform="translate(0.5,0.5) rotate(0) translate(-0.5,-0.5)">
		<stop id="stop1_MdOuVuBBrh_c_c" offset="0%" class="" stop-color="#05a"></stop>
		<stop id="stop2_zBOADuhTjX_c_c" offset="100%" class="" stop-color="#0a5"></stop>
	</linearGradient>

	<radialGradient class="" cx="50%" cy="50%" r="50%" fx="50%" fy="50%">
		<stop offset="0%" class="" stop-color="#05a"></stop>
		<stop offset="100%" class="" stop-color="#0a5"></stop>
	</radialGradient>
	<clipPath id="f_ellipse_BOpF5UVmHE_c_c" class="">
		<ellipse fill="none" class="" stroke="#f9cb5e" stroke-width="1" stroke-miterlimit="10" cx="50" cy="50" rx="50" ry="50"></ellipse>
	</clipPath>
	<ellipse class="" fill="#009944" opacity="1" cx="50" cy="50" rx="49" ry="49"></ellipse>
	<ellipse class="" fill="none" stroke="#f9cb5e" stroke-width="0" stroke-miterlimit="10" cx="50" cy="50" rx="50" ry="50" clip-path="url(#f_ellipse_BOpF5UVmHE_c_c)"></ellipse>
</svg></g>
        </g><g id="shape_uv9VrFeMHS" ref="shape_uv9VrFeMHS" key="shape_uv9VrFeMHS" transform="translate(4.217189941409515,229.43398666382) rotate(0,181.31254725275,50.952) scale(1,1)" style="cursor:move;display:inline;opacity:1;" filter="">
            <g style="display:inline"><svg xmlns="http://www.w3.org/2000/svg" version="1.1" xmlns:xlink="http://www.w3.org/1999/xlink" overflow="hidden" style="top:0; left: 0" width="805.305094505501" height="101.904" viewBox="0 0 800.305094505501 101.904" preserveAspectRatio="none" data-parent="shape_uv9VrFeMHS"><rect fill="rgba(0,0,0,0)" width="805.305094505501" height="101.904"></rect> <rect opacity="0"></rect><g transform="translate(0 0)" data-width="772.9999999999999"><path fill="#009944" d="M20.74 0L20.74-52.61L0.38-52.61L0.38-64.03L55.58-64.03L55.58-52.61L34.37-52.61L34.37 0L20.74 0Z" transform="translate(5 82.464) skewX(-15)"></path><path fill="#009944" d="M5.76-64.03L19.30-64.03L19.30-25.63Q19.30-21.02 20.06-18.48Q20.83-15.94 22.66-14.11L22.66-14.11Q26.69-10.18 33.89-10.18L33.89-10.18Q38.50-10.18 41.90-11.76Q45.31-13.34 46.66-16.03L46.66-16.03Q48-18.72 48-25.63L48-25.63L48-64.03L61.63-64.03L61.63-26.30Q61.63-18.82 60.05-13.97Q58.46-9.12 55.20-6.14L55.20-6.14Q47.62 0.48 33.70 0.48L33.70 0.48Q18.82 0.48 12-6.05L12-6.05Q8.45-9.41 7.10-13.58Q5.76-17.76 5.76-25.34L5.76-25.34L5.76-64.03Z" transform="translate(61.064 82.464) skewX(-15)"></path><path fill="#009944" d="M31.10-24.29L20.16-24.29L20.16 0L6.53 0L6.53-64.03L37.82-64.03Q51.26-64.03 56.54-60.58L56.54-60.58Q60.19-58.27 62.16-54.48Q64.13-50.69 64.13-46.18L64.13-46.18Q64.13-37.06 59.52-32.06L59.52-32.06Q56.64-29.09 51.94-27.55L51.94-27.55Q55.68-26.21 57.60-24.72Q59.52-23.23 61.06-20.35L61.06-20.35Q62.21-18.05 62.74-15.94Q63.26-13.82 63.55-9.70L63.55-9.70Q64.13-2.78 65.09 0L65.09 0L49.82 0Q49.15-2.21 48.38-9.12L48.38-9.12Q47.90-14.69 46.42-17.66Q44.93-20.64 41.95-22.37L41.95-22.37Q38.21-24.38 31.10-24.29L31.10-24.29ZM20.16-52.61L20.16-35.71L39.26-35.71Q44.06-35.71 46.08-37.15L46.08-37.15Q49.15-39.26 49.15-44.54L49.15-44.54Q49.15-50.40 44.54-52.03L44.54-52.03Q42.91-52.61 39.26-52.61L39.26-52.61L20.16-52.61Z" transform="translate(128.552 82.464) skewX(-15)"></path><path fill="#009944" d="M41.95 0L6.53 0L6.53-64.03L42.72-64.03Q51.26-64.03 55.10-62.02L55.10-62.02Q59.62-59.81 61.92-54.62L61.92-54.62Q63.55-51.07 63.55-47.23L63.55-47.23Q63.55-42.24 60.91-37.92Q58.27-33.60 54.24-31.97L54.24-31.97Q63.55-27.74 63.55-16.90L63.55-16.90Q63.55-10.66 60.58-6.43L60.58-6.43Q57.98-2.78 53.95-1.39Q49.92 0 41.95 0L41.95 0ZM20.16-52.61L20.16-37.73L38.69-37.73Q41.66-37.73 42.96-38.02Q44.26-38.30 45.50-39.26L45.50-39.26Q48.48-41.57 48.48-45.60L48.48-45.60Q48.48-49.44 45.70-51.26L45.70-51.26Q43.68-52.61 38.98-52.61L38.98-52.61L20.16-52.61ZM20.16-26.30L20.16-11.42L38.69-11.42Q41.66-11.42 43.01-11.71Q44.35-12 45.50-12.96L45.50-12.96Q48.48-15.26 48.48-19.30L48.48-19.30Q48.48-23.14 45.70-24.96L45.70-24.96Q43.68-26.30 38.98-26.30L38.98-26.30L20.16-26.30Z" transform="translate(197.096 82.464) skewX(-15)"></path><path fill="#009944" d="M0-30.53L22.37-30.53L22.37-19.01L0-19.01L0-30.53Z" transform="translate(264.104 82.464) skewX(-15)"></path><path fill="#009944" d="M6.24-64.03L26.11-64.03L42.05-14.02L58.85-64.03L78.72-64.03L78.72 0L65.76 0L65.76-48L49.06 0L35.04 0L19.20-48L19.20 0L6.24 0L6.24-64.03Z" transform="translate(286.472 82.464) skewX(-15)"></path><path fill="#009944" d="M16.22 0L0.29 0L26.78-64.03L42.43-64.03L68.93 0L52.99 0L46.75-14.78L22.46-14.78L16.22 0ZM43.78-26.21L34.66-48.58L25.54-26.21L43.78-26.21Z" transform="translate(371.816 82.464) skewX(-15)"></path><path fill="#009944" d="M45.70 0L19.58-46.94L19.58 0L6.53 0L6.53-64.03L24-64.03L49.44-16.32L49.44-64.03L62.40-64.03L62.40 0L45.70 0Z" transform="translate(441.128 82.464) skewX(-15)"></path><path fill="#009944" d="M16.22 0L0.29 0L26.78-64.03L42.43-64.03L68.93 0L52.99 0L46.75-14.78L22.46-14.78L16.22 0ZM43.78-26.21L34.66-48.58L25.54-26.21L43.78-26.21Z" transform="translate(510.056 82.464) skewX(-15)"></path><path fill="#009944" d="M30.05-26.59L30.05-38.02L61.44-38.02L61.44 0L32.83 0Q25.44 0 21.07-1.10Q16.70-2.21 13.15-4.99L13.15-4.99Q3.07-12.77 3.07-31.78L3.07-31.78Q3.07-44.16 7.87-52.42L7.87-52.42Q11.42-58.46 17.57-61.25Q23.71-64.03 33.50-64.03L33.50-64.03L61.44-64.03L61.44-52.61L35.04-52.61Q26.50-52.61 22.66-48.86L22.66-48.86Q18.05-44.45 18.05-33.02L18.05-33.02Q18.05-27.17 19.25-22.46Q20.45-17.76 22.56-15.46L22.56-15.46Q24.38-13.34 27.60-12.38Q30.82-11.42 35.52-11.42L35.52-11.42L47.90-11.42L47.90-26.59L30.05-26.59Z" transform="translate(579.3679999999999 82.464) skewX(-15)"></path><path fill="#009944" d="M31.58-64.03L54.53-64.03L54.53-52.61L36.77-52.61Q29.86-52.61 26.69-51.65Q23.52-50.69 21.41-47.90L21.41-47.90Q19.97-45.98 19.44-44.06Q18.91-42.14 18.53-37.54L18.53-37.54L54.53-37.54L54.53-26.11L18.53-26.11Q19.30-17.86 23.42-14.64Q27.55-11.42 37.44-11.42L37.44-11.42L54.53-11.42L54.53 0L36.77 0Q29.57 0 24.10-0.86L24.10-0.86Q15.46-2.30 10.37-8.45L10.37-8.45Q3.07-17.28 3.07-32.35L3.07-32.35Q3.07-49.06 13.34-58.37L13.34-58.37Q16.90-61.54 20.88-62.78Q24.86-64.03 31.58-64.03L31.58-64.03Z" transform="translate(645.704 82.464) skewX(-15)"></path><path fill="#009944" d="M31.10-24.29L20.16-24.29L20.16 0L6.53 0L6.53-64.03L37.82-64.03Q51.26-64.03 56.54-60.58L56.54-60.58Q60.19-58.27 62.16-54.48Q64.13-50.69 64.13-46.18L64.13-46.18Q64.13-37.06 59.52-32.06L59.52-32.06Q56.64-29.09 51.94-27.55L51.94-27.55Q55.68-26.21 57.60-24.72Q59.52-23.23 61.06-20.35L61.06-20.35Q62.21-18.05 62.74-15.94Q63.26-13.82 63.55-9.70L63.55-9.70Q64.13-2.78 65.09 0L65.09 0L49.82 0Q49.15-2.21 48.38-9.12L48.38-9.12Q47.90-14.69 46.42-17.66Q44.93-20.64 41.95-22.37L41.95-22.37Q38.21-24.38 31.10-24.29L31.10-24.29ZM20.16-52.61L20.16-35.71L39.26-35.71Q44.06-35.71 46.08-37.15L46.08-37.15Q49.15-39.26 49.15-44.54L49.15-44.54Q49.15-50.40 44.54-52.03L44.54-52.03Q42.91-52.61 39.26-52.61L39.26-52.61L20.16-52.61Z" transform="translate(704.4559999999999 82.464) skewX(-15)"></path></g></svg></g>
        </g><g id="shape_7EExBR2kfr" ref="shape_7EExBR2kfr" key="shape_7EExBR2kfr" transform="translate(321.5984115600568,342.583984375) rotate(0,114.87232565547,13.714599609375) scale(1,1)" style="cursor:move;display:inline;opacity:1;" filter="">
            <g style="display:inline"><svg xmlns="http://www.w3.org/2000/svg" version="1.1" xmlns:xlink="http://www.w3.org/1999/xlink" overflow="hidden" style="top:0; left: 0" width="183.36037396719644" height="27.42919921875" viewBox="0 0 178.36037396719644 27.42919921875" preserveAspectRatio="none" data-parent="shape_7EExBR2kfr"><rect fill="rgba(0,0,0,0)" width="183.36037396719644" height="27.42919921875"></rect> <rect opacity="0"></rect><g transform="translate(0 0)" data-width="171.0107421875"><path fill="#FFFFFF" d="M5.06-2.42L5.06-14.97L0.62-14.97L0.62-17.06L11.60-17.06L11.60-14.97L7.15-14.97L7.15-2.42L5.06-2.42Z" transform="translate(5 17.595703125) skewX(-15)"></path><path fill="#FFFFFF" d="M6.78-2.15Q9.17-2.15 10.85-3.54L10.85-3.54Q12.53-4.91 12.53-6.86L12.53-6.86L12.53-17.06L10.44-17.06L10.44-6.86Q10.44-5.78 9.37-5.01L9.37-5.01Q8.30-4.25 6.78-4.25L6.78-4.25Q5.26-4.25 4.19-5.01L4.19-5.01Q3.12-5.78 3.12-6.86L3.12-6.86L3.12-17.06L1.03-17.06L1.03-6.86Q1.03-4.91 2.71-3.54L2.71-3.54Q4.40-2.15 6.78-2.15L6.78-2.15Z" transform="translate(17.21240234375 17.595703125) skewX(-15)"></path><path fill="#FFFFFF" d="M7.00-8.17L3.12-8.17L3.12-2.42L1.03-2.42L1.03-17.06L8.09-17.06Q9.93-17.06 11.23-15.76L11.23-15.76Q12.53-14.46 12.53-12.61L12.53-12.61Q12.53-10.78 11.23-9.47L11.23-9.47Q10.43-8.67 9.42-8.37L9.42-8.37L13.58-2.42L11.03-2.42L7.00-8.17ZM8.09-14.97L3.12-14.97L3.12-10.26L8.09-10.26Q9.06-10.26 9.75-10.95L9.75-10.95Q10.44-11.64 10.44-12.61L10.44-12.61Q10.44-13.59 9.75-14.28L9.75-14.28Q9.06-14.97 8.09-14.97L8.09-14.97Z" transform="translate(30.76806640625 17.595703125) skewX(-15)"></path><path fill="#FFFFFF" d="M1.03-2.42L7.96-2.42Q9.74-2.42 11.01-3.68L11.01-3.68Q12.27-4.94 12.27-6.74L12.27-6.74Q12.27-8.52 11.01-9.78L11.01-9.78Q10.74-10.06 10.43-10.27L10.43-10.27Q11.48-11.42 11.48-13.01L11.48-13.01Q11.48-14.68 10.31-15.87L10.31-15.87Q9.12-17.06 7.43-17.06L7.43-17.06L1.03-17.06L1.03-2.42ZM3.12-8.95L7.96-8.95Q8.88-8.95 9.53-8.31L9.53-8.31Q10.18-7.65 10.18-6.74L10.18-6.74Q10.18-5.81 9.53-5.16L9.53-5.16Q8.88-4.51 7.96-4.51L7.96-4.51L3.12-4.51L3.12-8.95ZM3.12-14.97L7.43-14.97Q8.24-14.97 8.82-14.40L8.82-14.40Q9.39-13.82 9.39-13.01L9.39-13.01Q9.39-12.19 8.82-11.62L8.82-11.62Q8.24-11.04 7.43-11.04L7.43-11.04L3.12-11.04L3.12-14.97Z" transform="translate(43.91357421875 17.595703125) skewX(-15)"></path><path fill="#FFFFFF" d="M11.07-6.34L0.62-6.34L0.62-8.43L11.07-8.43L11.07-6.34Z" transform="translate(56.802734375 17.595703125) skewX(-15)"></path><path fill="#FFFFFF" d="M7.70-6.86L3.12-13.40L3.12-2.42L1.03-2.42L1.03-17.06L3.12-17.06L8.60-9.22L14.10-17.06L16.19-17.06L16.19-2.42L14.10-2.42L14.10-13.42L9.51-6.86L7.70-6.86Z" transform="translate(68.4921875 17.595703125) skewX(-15)"></path><path fill="#FFFFFF" d="M10.92-6.34L4.14-6.34L2.48-2.42L0.21-2.42L6.42-17.06L8.63-17.06L14.85-2.42L12.58-2.42L10.92-6.34ZM5.03-8.43L10.03-8.43L7.53-14.31L5.03-8.43Z" transform="translate(85.70849609375 17.595703125) skewX(-15)"></path><path fill="#FFFFFF" d="M3.10-17.06L1.03-17.06L1.03-2.42L3.12-2.42L3.12-13.30L10.46-2.42L12.53-2.42L12.53-17.06L10.44-17.06L10.44-6.18L3.10-17.06Z" transform="translate(100.76123046875 17.595703125) skewX(-15)"></path><path fill="#FFFFFF" d="M10.92-6.34L4.14-6.34L2.48-2.42L0.21-2.42L6.42-17.06L8.63-17.06L14.85-2.42L12.58-2.42L10.92-6.34ZM5.03-8.43L10.03-8.43L7.53-14.31L5.03-8.43Z" transform="translate(114.31689453125 17.595703125) skewX(-15)"></path><path fill="#FFFFFF" d="M15.71-10.79L7.67-10.79L7.67-8.70L13.60-8.70Q13.31-7.09 12.08-5.85L12.08-5.85Q10.47-4.25 8.19-4.25L8.19-4.25Q5.92-4.25 4.32-5.85L4.32-5.85Q2.71-7.46 2.71-9.74L2.71-9.74Q2.71-12.02 4.32-13.63L4.32-13.63Q5.92-15.23 8.19-15.23L8.19-15.23Q10.76-15.23 12.41-13.27L12.41-13.27L14.01-14.61Q11.73-17.33 8.19-17.33L8.19-17.33Q5.06-17.33 2.83-15.10L2.83-15.10Q0.62-12.88 0.62-9.74L0.62-9.74Q0.62-6.59 2.83-4.38L2.83-4.38Q5.06-2.15 8.19-2.15L8.19-2.15Q11.34-2.15 13.56-4.38L13.56-4.38Q15.78-6.59 15.78-9.74L15.78-9.74Q15.78-10.26 15.71-10.79L15.71-10.79Z" transform="translate(129.36962890625 17.595703125) skewX(-15)"></path><path fill="#FFFFFF" d="M1.03-17.06L11.48-17.06L11.48-14.97L3.12-14.97L3.12-10.79L11.48-10.79L11.48-8.70L3.12-8.70L3.12-4.51L11.48-4.51L11.48-2.42L1.03-2.42L1.03-17.06Z" transform="translate(145.765625 17.595703125) skewX(-15)"></path><path fill="#FFFFFF" d="M7.00-8.17L3.12-8.17L3.12-2.42L1.03-2.42L1.03-17.06L8.09-17.06Q9.93-17.06 11.23-15.76L11.23-15.76Q12.53-14.46 12.53-12.61L12.53-12.61Q12.53-10.78 11.23-9.47L11.23-9.47Q10.43-8.67 9.42-8.37L9.42-8.37L13.58-2.42L11.03-2.42L7.00-8.17ZM8.09-14.97L3.12-14.97L3.12-10.26L8.09-10.26Q9.06-10.26 9.75-10.95L9.75-10.95Q10.44-11.64 10.44-12.61L10.44-12.61Q10.44-13.59 9.75-14.28L9.75-14.28Q9.06-14.97 8.09-14.97L8.09-14.97Z" transform="translate(157.865234375 17.595703125) skewX(-15)"></path></g></svg></g>
        </g></svg>