<?xml version="1.0" standalone="no"?><!DOCTYPE svg PUBLIC "-//W3C//DTD SVG 1.1//EN" "http://www.w3.org/Graphics/SVG/1.1/DTD/svg11.dtd" [<!ENTITY nbsp " ">]><svg data-noselect="" viewBox="158.27321409344 -106.14019260112178 1121.096818778778 840.8226140840834" width="1121.096818778778" ref="svg_canvas" height="840.8226140840834" preserveAspectRatio="none" version="1.1" xmlns="http://www.w3.org/2000/svg" style="background: #ffffff;"><g id="shape_GVp7tKrWqS" ref="shape_GVp7tKrWqS" key="shape_GVp7tKrWqS" transform="translate(238.27321409344,226) rotate(0,66.998941668285,67.00012347421) scale(1,1)" style="cursor:move;display:inline;opacity:1;" filter="">
            <g style="display:inline"><rect fill="rgba(0,0,0,0)" width="153.99788333657" height="154.00024694842" x="-10" y="-10"></rect><svg version="1.1" id="图层_1" xmlns="http://www.w3.org/2000/svg" xmlns:xlink="http://www.w3.org/1999/xlink" x="0px" y="0px" width="133.99788333657" height="134.00024694842" viewBox="0 -1.002 283.46 283.465" style="enable-background:new 0 -1.002 283.46 283.465;" xml:space="preserve" preserveAspectRatio="none" data-parent="shape_GVp7tKrWqS">
<g>
	<path style="" d="M48.241,156.645c0,64.434,52.231,116.701,116.701,116.701c4.999,0,9.887-0.331,14.702-0.955
		c-11.983,3.418-24.59,5.256-37.675,5.256c-75.607,0-136.917-61.309-136.917-136.917S66.361,3.813,141.969,3.813
		c71.711,0,130.558,55.171,136.439,125.375c-12.35-51.201-58.479-89.244-113.466-89.244
		C100.471,39.944,48.241,92.175,48.241,156.645z" fill="#f39800"></path>
	<path style="" d="M95.88,137.17c-13.746,29.187-1.237,64.005,27.966,77.759c2.264,1.066,4.549,1.96,6.864,2.704
		c-6.157-1.008-12.26-2.865-18.187-5.657c-34.248-16.13-48.94-56.981-32.811-91.229s56.981-48.94,91.229-32.811
		c32.483,15.299,47.37,52.844,35.056,85.899c5.329-25.828-7.451-52.901-32.359-64.632C144.436,95.45,109.634,107.967,95.88,137.17z" fill="#f39800"></path>
	<path style="" d="M173.081,165.79c0.569-14.576-10.785-26.861-25.37-27.43c-1.131-0.044-2.24-0.012-3.334,0.086
		c2.741-0.667,5.609-0.972,8.569-0.856c17.104,0.668,30.432,15.078,29.765,32.182s-15.078,30.432-32.182,29.765
		c-16.223-0.633-29.048-13.633-29.758-29.567c2.342,11.692,12.441,20.705,24.88,21.191
		C160.235,191.729,172.512,180.375,173.081,165.79z" fill="#f39800"></path>
</g>
</svg></g>
        </g><g id="shape_x8AnjAxoi8" ref="shape_x8AnjAxoi8" key="shape_x8AnjAxoi8" transform="translate(323.68496704102,350.00022888184) rotate(0,134.84529323436,26.271) scale(1,1)" style="cursor:move;display:inline;opacity:1;" filter="">
            <g style="display:inline"><svg xmlns="http://www.w3.org/2000/svg" version="1.1" xmlns:xlink="http://www.w3.org/1999/xlink" overflow="hidden" style="top:0; left: 0" width="391.89894666202053" height="52.542" viewBox="0 0 386.89894666202053 57.813" preserveAspectRatio="none" data-parent="shape_x8AnjAxoi8"><rect fill="rgba(0,0,0,0)" width="391.89894666202053" height="52.542"></rect> <rect opacity="0"></rect><g transform="translate(0 0)" data-width="371.408"><path fill="#005bf3" d="M15.16-24.82L24.07-24.82L24.07-29.36L1.30-29.36L1.30-24.82L10.21-24.82L10.21 0L15.16 0Z" transform="translate(5 40.656000000000006) skewX(-15)"></path><path fill="#005bf3" d="M16.13-4.37C11.55-4.37 8.65-7.69 8.65-13.10L8.65-29.36L3.70-29.36L3.70-12.89C3.70-4.12 9.20 0.29 16.13 0.29C23.06 0.29 28.56-4.12 28.56-12.89L28.56-29.36L23.60-29.36L23.60-13.10C23.60-7.69 20.71-4.37 16.13-4.37Z" transform="translate(30.368000000000002 40.656000000000006) skewX(-15)"></path><path fill="#005bf3" d="M27.51-19.82C27.51-26.38 24.11-29.36 14.99-29.36L4.07-29.36L4.07 0L9.03 0L9.03-9.87L14.24-9.87L15.54-9.87L22.55 0L28.85 0L21.17-10.67C25.24-11.89 27.51-14.62 27.51-19.82ZM22.43-19.82C22.43-16.30 21.13-14.36 15.20-14.36L9.03-14.36L9.03-24.86L15.33-24.86C20.58-24.86 22.43-23.77 22.43-19.82Z" transform="translate(62.624 40.656000000000006) skewX(-15)"></path><path fill="#005bf3" d="M16.93 0C25.37 0 27.51-4.54 27.51-8.15C27.51-11.89 25.16-14.49 21.55-15.25C22.97-15.92 25.87-17.09 25.87-21.59C25.87-24.91 23.94-29.36 15.50-29.36L4.07-29.36L4.07 0ZM9.03-17.18L9.03-24.78L15.37-24.78C18.90-24.78 20.71-23.73 20.71-20.83C20.71-18.10 18.44-17.18 15.33-17.18ZM9.03-4.58L9.03-12.60L16.17-12.60C19.61-12.60 22.43-11.59 22.43-8.69C22.43-5.29 20.08-4.58 16.80-4.58Z" transform="translate(93.2 40.656000000000006) skewX(-15)"></path><path fill="#005bf3" d="M3.02-10.33L16.97-10.33L16.97-14.74L3.02-14.74Z" transform="translate(122.852 40.656000000000006) skewX(-15)"></path><path fill="#005bf3" d="M19.24-2.56L22.01-2.56L32.26-22.93L32.26 0L37.21 0L37.21-29.36L29.53-29.36L20.66-10.92L11.80-29.36L4.07-29.36L4.07 0L9.03 0L9.03-22.93Z" transform="translate(142.844 40.656000000000006) skewX(-15)"></path><path fill="#005bf3" d="M8.23-6.68L22.93-6.68L25.87 0L31.16 0L18.23-29.36L12.94-29.36L0 0L5.29 0ZM20.92-11.26L10.25-11.26L15.58-23.35Z" transform="translate(184.13 40.656000000000006) skewX(-15)"></path><path fill="#005bf3" d="M26.08-7.43L9.03-29.36L4.07-29.36L4.07 0L9.03 0L9.03-21.42L25.66 0L31.04 0L31.04-29.36L26.08-29.36Z" transform="translate(215.29399999999998 40.656000000000006) skewX(-15)"></path><path fill="#005bf3" d="M8.23-6.68L22.93-6.68L25.87 0L31.16 0L18.23-29.36L12.94-29.36L0 0L5.29 0ZM20.92-11.26L10.25-11.26L15.58-23.35Z" transform="translate(250.40599999999998 40.656000000000006) skewX(-15)"></path><path fill="#005bf3" d="M24.40-14.28L24.40-6.22C22.43-4.96 20.08-4.41 17.51-4.41C11.97-4.41 7.35-8.32 7.35-14.78C7.35-21.17 12.05-25.20 17.85-25.20C20.79-25.20 22.97-24.65 25.37-22.60L28.01-26.38C25.62-28.48 22.30-30.07 17.64-30.07C9.03-30.07 2.18-23.56 2.18-14.87C2.18-5.96 8.86 0.34 17.47 0.34C22.97 0.34 26.92-1.55 29.36-4.24L29.36-14.28Z" transform="translate(281.57 40.656000000000006) skewX(-15)"></path><path fill="#005bf3" d="M24.70-29.36L4.07-29.36L4.07 0L25.20 0L25.20-4.66L9.03-4.66L9.03-12.52L23.10-12.52L23.10-16.93L9.03-16.93L9.03-24.70L24.70-24.70Z" transform="translate(313.364 40.656000000000006) skewX(-15)"></path><path fill="#005bf3" d="M27.51-19.82C27.51-26.38 24.11-29.36 14.99-29.36L4.07-29.36L4.07 0L9.03 0L9.03-9.87L14.24-9.87L15.54-9.87L22.55 0L28.85 0L21.17-10.67C25.24-11.89 27.51-14.62 27.51-19.82ZM22.43-19.82C22.43-16.30 21.13-14.36 15.20-14.36L9.03-14.36L9.03-24.86L15.33-24.86C20.58-24.86 22.43-23.77 22.43-19.82Z" transform="translate(340.832 40.656000000000006) skewX(-15)"></path></g></svg></g>
        </g><g id="shape_vpzIy3t29t" ref="shape_vpzIy3t29t" key="shape_vpzIy3t29t" transform="translate(323.68495178223,277.23896111382) rotate(0,152.06358131394,52.486) scale(1,1)" style="cursor:move;display:inline;opacity:1;" filter="">
            <g style="display:inline"><svg xmlns="http://www.w3.org/2000/svg" version="1.1" xmlns:xlink="http://www.w3.org/1999/xlink" overflow="hidden" style="top:0; left: 0" width="875.685081089988" height="104.972" viewBox="0 0 870.685081089988 111.458" preserveAspectRatio="none" data-parent="shape_vpzIy3t29t"><rect fill="rgba(0,0,0,0)" width="875.685081089988" height="104.972"></rect> <rect opacity="0"></rect><g transform="translate(0 0)" data-width="840.8199999999999"><path fill="#005bf3" d="M25.94-5.43L25.94-41.49L1.84-41.49L1.84-49.50L4.69-47.93L62.65-47.93L62.65-39.65Q62.19-40.85 61.18-41.17Q60.17-41.49 59.34-41.49L59.34-41.49L37.90-41.49L37.90-5.43L25.94-5.43Z" transform="translate(5 79.02799999999999) skewX(-15)"></path><path fill="#005bf3" d="M3.50-5.34L3.50-46.09L1.84-47.93L15.55-47.93L15.55-11.87L52.35-11.87L52.35-46.09L50.69-47.93L64.40-47.93L64.40-3.59Q63.94-4.69 62.93-5.01Q61.92-5.34 61.09-5.34L61.09-5.34L3.50-5.34Z" transform="translate(69.492 79.02799999999999) skewX(-15)"></path><path fill="#005bf3" d="M3.50-5.43L3.50-46.09L1.84-47.93L64.40-47.93L64.40-22.54Q63.85-23.64 62.88-24.06Q61.92-24.47 61.00-24.47L61.00-24.47L48.48-24.47L65.41-5.43L51.61-5.43L35.51-24.47L15.55-24.47L15.55-5.43L3.50-5.43ZM15.55-41.49L15.55-30.82L52.35-30.82L52.35-41.49L15.55-41.49Z" transform="translate(135.732 79.02799999999999) skewX(-15)"></path><path fill="#005bf3" d="M3.59-5.43L3.59-46L1.84-47.84L64.58-47.84L64.58-33.58L55.48-26.59L64.58-21.53L64.58-5.43L3.59-5.43ZM52.72-41.49L15.55-41.49L15.55-29.81L52.72-29.81L52.72-41.49ZM52.72-23.46L15.55-23.46L15.55-11.78L52.72-11.78L52.72-23.46Z" transform="translate(202.98399999999998 79.02799999999999) skewX(-15)"></path><path fill="#005bf3" d="M1.84-21.80L1.84-28.24L74.52-28.24L74.52-21.80L1.84-21.80Z" transform="translate(269.40799999999996 79.02799999999999) skewX(-15)"></path><path fill="#005bf3" d="M34.96-5.43L24.47-38.55L13.80-5.43L1.84-5.43L15.46-46L13.80-47.84L29.16-47.84L39.38-17.11L49.13-46L47.47-47.84L62.56-47.84L76.64-5.43L68.36-5.43L57.96-38.27L47.47-5.43L34.96-5.43Z" transform="translate(345.768 79.02799999999999) skewX(-15)"></path><path fill="#005bf3" d="M51.98-47.84L73.14-5.43L61.27-5.43L53.64-21.07L21.44-21.07L13.71-5.43L1.84-5.43L22.45-46L20.70-47.84L51.98-47.84ZM31.56-41.49L24.56-27.51L50.42-27.51L43.61-41.49L31.56-41.49Z" transform="translate(424.24399999999997 79.02799999999999) skewX(-15)"></path><path fill="#005bf3" d="M64.31-5.43L52.35-5.43L52.35-41.49L15.46-41.49L15.46-5.43L3.50-5.43L3.50-46.09L1.84-47.93L64.31-47.93L64.31-5.43Z" transform="translate(499.224 79.02799999999999) skewX(-15)"></path><path fill="#005bf3" d="M51.98-47.84L73.14-5.43L61.27-5.43L53.64-21.07L21.44-21.07L13.71-5.43L1.84-5.43L22.45-46L20.70-47.84L51.98-47.84ZM31.56-41.49L24.56-27.51L50.42-27.51L43.61-41.49L31.56-41.49Z" transform="translate(565.372 79.02799999999999) skewX(-15)"></path><path fill="#005bf3" d="M64.31-29.90L64.31-3.59Q63.94-4.69 62.84-5.06L62.84-5.06Q62.01-5.34 61.36-5.43L61.36-5.43L3.59-5.43L3.59-46.09L1.84-47.93L65.23-47.93L65.23-39.65Q64.86-40.85 63.80-41.22Q62.74-41.58 61.92-41.58L61.92-41.58L15.46-41.58L15.46-11.87L52.44-11.87L52.44-23.46L29.99-23.46L29.99-31.46L32.84-29.90L64.31-29.90Z" transform="translate(640.352 79.02799999999999) skewX(-15)"></path><path fill="#005bf3" d="M62.47-29.90L62.47-21.62Q62.01-22.72 61.04-23.09Q60.08-23.46 59.16-23.46L59.16-23.46L15.46-23.46L15.46-11.87L64.31-11.87L64.31-3.59Q63.94-4.69 62.88-5.06Q61.82-5.43 61.00-5.43L61.00-5.43L3.59-5.43L3.59-46.09L1.84-47.93L64.31-47.93L64.31-39.65Q63.94-40.85 62.88-41.22Q61.82-41.58 61.00-41.58L61.00-41.58L15.46-41.58L15.46-29.90L62.47-29.90Z" transform="translate(707.42 79.02799999999999) skewX(-15)"></path><path fill="#005bf3" d="M3.50-5.43L3.50-46.09L1.84-47.93L64.40-47.93L64.40-22.54Q63.85-23.64 62.88-24.06Q61.92-24.47 61.00-24.47L61.00-24.47L48.48-24.47L65.41-5.43L51.61-5.43L35.51-24.47L15.55-24.47L15.55-5.43L3.50-5.43ZM15.55-41.49L15.55-30.82L52.35-30.82L52.35-41.49L15.55-41.49Z" transform="translate(773.568 79.02799999999999) skewX(-15)"></path></g></svg></g>
        </g></svg>